<?xml version="1.0" standalone="no"?>
<!DOCTYPE svg PUBLIC "-//W3C//DTD SVG 20010904//EN"
 "http://www.w3.org/TR/2001/REC-SVG-20010904/DTD/svg10.dtd">
<svg version="1.0" xmlns="http://www.w3.org/2000/svg"
 width="512.000000pt" height="512.000000pt" viewBox="0 0 512.000000 512.000000"
 preserveAspectRatio="xMidYMid meet">

<g transform="translate(0.000000,512.000000) scale(0.100000,-0.100000)"
fill="#000000" stroke="none">
<path d="M2270 4945 c-440 -58 -810 -207 -1159 -468 -128 -95 -378 -346 -475
-477 -314 -422 -476 -912 -476 -1435 0 -533 164 -1024 485 -1450 347 -460 864
-788 1420 -900 200 -40 281 -48 490 -48 642 -1 1210 228 1669 673 397 385 632
848 712 1405 21 145 24 465 5 605 -110 824 -594 1505 -1326 1865 -222 110
-422 174 -670 216 -157 27 -521 35 -675 14z m455 -365 c478 -43 924 -249 1255
-579 517 -516 714 -1238 534 -1956 -86 -344 -296 -696 -570 -954 -792 -749
-2037 -733 -2812 37 -522 519 -722 1277 -523 1983 193 685 745 1227 1431 1408
234 61 460 81 685 61z"/>
<path d="M1635 3480 l-130 -130 393 -393 392 -392 -392 -392 -393 -393 130
-130 c71 -71 134 -130 140 -130 5 0 184 174 397 387 l388 388 393 -393 392
-392 133 132 132 133 -392 392 -393 393 388 388 c213 213 387 392 387 397 0 6
-59 69 -130 140 l-130 130 -393 -393 -392 -392 -390 390 c-214 214 -392 390
-395 390 -3 0 -64 -59 -135 -130z"/>
</g>
</svg>
